<?xml version="1.0" standalone="no"?>
<!DOCTYPE svg PUBLIC "-//W3C//DTD SVG 20010904//EN"
 "http://www.w3.org/TR/2001/REC-SVG-20010904/DTD/svg10.dtd">
<svg version="1.0" xmlns="http://www.w3.org/2000/svg"
 width="1024.000000pt" height="1024.000000pt" viewBox="0 0 1024.000000 1024.000000"
 preserveAspectRatio="xMidYMid meet">
<metadata>
Created by potrace 1.16, written by Peter Selinger 2001-2019
</metadata>
<g transform="translate(0.000000,1024.000000) scale(0.100000,-0.100000)"
fill="#000000" stroke="none">
<path d="M0 5120 l0 -5120 5120 0 5120 0 0 5120 0 5120 -5120 0 -5120 0 0
-5120z m7521 3699 c21 -104 57 -137 188 -170 49 -12 45 -20 -19 -38 -120 -33
-149 -63 -172 -176 -6 -31 -16 -54 -22 -52 -6 2 -15 28 -22 58 -21 106 -58
140 -181 170 -26 6 -52 15 -56 19 -5 4 29 19 75 33 46 15 93 33 105 42 22 15
43 64 63 143 6 23 15 40 20 37 5 -3 14 -33 21 -66z m473 -151 c3 -13 12 -66
22 -118 34 -192 80 -239 287 -291 49 -12 85 -25 80 -29 -4 -4 -30 -13 -58 -19
-97 -23 -189 -65 -231 -106 -46 -43 -76 -121 -89 -226 -7 -58 -19 -88 -30 -77
-4 4 -15 49 -25 102 -30 153 -60 204 -144 248 -46 23 -191 67 -223 68 -38 0
-26 19 20 30 109 28 205 62 239 84 49 34 82 106 107 239 12 59 21 110 21 113
0 15 20 0 24 -18z m-2519 -28 c266 -15 516 -52 748 -110 110 -28 387 -122 517
-175 568 -233 1070 -600 1438 -1049 180 -218 239 -301 337 -471 328 -568 500
-1173 522 -1842 7 -209 7 -209 -47 -178 -14 8 -37 14 -52 15 -27 0 -28 1 -28
60 0 70 -5 72 -97 43 l-53 -17 0 -98 c0 -80 -3 -98 -15 -98 -8 0 -15 -7 -15
-15 0 -8 -5 -15 -11 -15 -6 0 -9 -6 -6 -13 3 -8 2 -29 -3 -48 l-8 -34 -1 38
c-1 29 -5 37 -20 37 -11 0 -22 6 -24 13 -3 6 -6 -27 -6 -75 -1 -77 1 -88 17
-89 9 0 40 -10 67 -23 l50 -23 -32 -7 -33 -8 -1 -99 c-2 -128 -2 -122 -19
-136 -13 -11 -13 -12 3 -13 21 0 24 -40 2 -40 -34 0 -11 -19 45 -36 33 -11 60
-21 60 -24 0 -3 -19 -11 -42 -18 -23 -7 -56 -19 -75 -27 l-33 -14 0 -110 c0
-82 -3 -111 -12 -112 -10 0 -10 -2 0 -6 6 -2 12 -11 12 -18 0 -16 22 -25 68
-26 34 0 31 -2 -33 -24 -38 -14 -78 -29 -87 -35 -12 -7 -18 -7 -18 0 0 5 -8
10 -17 10 -15 0 -16 -2 -3 -10 22 -14 4 -12 -37 5 -19 8 -49 15 -65 15 -17 0
-27 4 -23 10 4 6 -5 10 -19 10 -27 0 -36 -24 -13 -33 7 -3 5 -6 -5 -6 -13 -1
-18 7 -18 23 0 18 -6 26 -22 28 -25 4 129 58 166 58 13 0 17 3 9 8 -8 5 -12
60 -15 167 l-3 160 37 9 c32 8 37 14 42 45 11 71 1 86 -64 95 -38 5 -50 11
-50 24 0 15 -2 15 -11 2 -9 -12 -10 -11 -6 8 3 13 1 20 -5 16 -5 -4 -9 6 -7
22 3 46 0 66 -11 59 -5 -3 -10 -32 -10 -63 0 -41 -3 -53 -10 -42 -5 8 -10 34
-10 56 0 35 -4 43 -22 48 -42 11 -74 6 -136 -19 -34 -14 -64 -25 -67 -25 -3 0
-5 334 -5 743 0 731 0 742 20 755 20 12 20 23 20 630 0 579 -2 619 -19 657
-23 49 -64 89 -114 110 -21 9 -102 29 -180 45 -78 16 -185 38 -237 50 -52 11
-266 57 -475 101 -343 72 -550 115 -1555 319 -162 33 -317 61 -345 61 -27 1
-178 -26 -335 -59 -305 -65 -478 -101 -630 -132 -115 -23 -337 -70 -685 -144
-143 -30 -431 -91 -640 -136 -557 -118 -549 -115 -597 -183 l-22 -31 2 -635
c3 -628 3 -636 24 -653 11 -10 29 -18 39 -18 18 0 19 -16 19 -468 l0 -468 -53
-17 c-80 -25 -79 -25 -75 44 l3 61 -52 -6 -53 -6 -1 32 c-1 18 -2 103 -3 188
l-1 155 -27 3 c-16 2 -28 9 -28 18 0 8 -10 14 -22 15 -59 3 -62 4 -72 37 -5
17 -14 32 -20 32 -8 0 -10 -78 -8 -271 3 -259 2 -270 -15 -265 -10 3 -50 -3
-88 -14 -85 -24 -95 -25 -96 -2 -1 11 -3 8 -8 -8 -4 -14 -17 -27 -31 -31 -22
-5 -18 -8 29 -22 30 -10 67 -17 82 -17 l28 0 3 -210 c2 -173 6 -212 18 -220 8
-5 48 -17 90 -26 84 -19 84 -18 -40 -55 -41 -13 -79 -28 -83 -33 -4 -6 -6 -40
-3 -76 3 -36 2 -90 -3 -120 -5 -30 -9 -49 -10 -42 0 7 -5 11 -10 8 -4 -3 -6
-17 -4 -31 7 -36 -24 -46 -47 -14 -10 13 -16 27 -14 31 3 4 -2 5 -10 2 -11 -4
-16 0 -16 10 0 21 -39 21 -87 1 -49 -21 -90 -19 -124 6 -20 14 -29 29 -29 48
0 26 5 29 54 40 63 14 63 15 56 114 -6 78 -5 79 72 96 92 21 99 26 96 72 -3
38 -6 42 -43 55 -22 7 -48 14 -58 14 -11 0 -15 4 -11 12 4 6 3 8 -4 4 -5 -3
-25 6 -44 21 -18 15 -34 28 -36 28 -1 1 -4 45 -6 98 l-5 96 42 4 42 4 -47 1
-48 2 0 -109 0 -109 -59 -14 -60 -15 -7 76 c-10 112 2 556 20 701 60 491 213
965 447 1393 200 364 549 795 864 1067 147 127 375 284 570 392 450 251 1117
432 1660 451 182 7 217 6 380 -3z m-2865 -138 c0 -5 -13 -21 -30 -37 l-30 -29
0 -245 0 -246 -242 3 c-134 1 -261 3 -283 5 -34 2 -45 -3 -72 -33 -18 -19 -33
-39 -33 -43 0 -5 -4 -5 -10 -2 -11 7 -14 617 -3 628 9 10 703 9 703 -1z m5886
-547 c7 -40 35 -68 89 -91 l40 -17 -30 -13 c-16 -7 -35 -13 -42 -14 -19 0 -52
-49 -59 -86 -8 -42 -21 -52 -29 -22 -24 88 -40 103 -135 131 -9 3 5 14 35 27
64 28 82 45 91 84 12 58 29 58 40 1z m-6486 -352 c28 -134 68 -178 191 -210
38 -9 69 -21 69 -25 0 -4 -37 -18 -83 -32 -121 -37 -149 -70 -177 -209 -6 -31
-15 -55 -19 -52 -5 2 -14 33 -21 67 -26 128 -58 162 -187 200 -40 12 -73 24
-73 28 0 3 40 17 88 32 115 36 136 57 164 171 12 48 25 87 29 87 4 0 13 -26
19 -57z m3675 -42 c193 -39 478 -97 635 -130 157 -33 431 -89 610 -126 178
-36 326 -68 328 -70 7 -7 -193 -55 -518 -126 -397 -85 -664 -145 -930 -207
-424 -100 -567 -132 -587 -132 -18 0 -302 65 -738 170 -93 23 -258 61 -365 85
-107 25 -292 67 -410 95 -118 28 -255 60 -305 71 -86 19 -103 25 -94 32 2 2
132 30 289 61 242 49 1054 218 1520 316 74 15 153 28 175 29 23 1 198 -30 390
-68z m2885 -98 c0 -9 9 -36 21 -59 17 -36 28 -45 70 -59 55 -19 54 -26 -3 -45
-47 -14 -73 -47 -82 -100 -8 -49 -23 -52 -31 -6 -11 55 -40 93 -82 106 -57 18
-58 25 -10 44 55 21 72 39 86 94 12 42 31 58 31 25z m-765 -334 c80 -18 145
-35 145 -39 0 -4 -19 -10 -42 -14 -63 -10 -354 -73 -493 -106 -349 -84 -425
-102 -590 -141 -99 -23 -198 -45 -220 -50 -22 -4 -96 -22 -165 -39 -117 -29
-409 -96 -615 -141 -49 -11 -144 -33 -210 -49 -66 -16 -160 -38 -210 -50 -49
-11 -105 -25 -122 -31 l-33 -10 -2 -207 c-3 -177 -5 -207 -18 -206 -45 4
-1036 256 -1345 341 l-100 28 -3 92 -3 93 -52 14 c-29 8 -69 18 -89 22 l-38 6
0 -86 0 -86 -27 6 c-113 27 -262 66 -280 74 -21 9 -23 16 -23 93 l0 83 -119
31 c-66 17 -122 28 -125 25 -4 -3 -6 -41 -6 -85 0 -77 -1 -79 -22 -73 -13 3
-98 24 -190 47 l-168 42 0 188 0 187 98 22 c53 12 111 26 128 31 52 16 170
-10 1594 -351 278 -66 565 -134 637 -151 l133 -30 215 51 c118 27 246 57 283
65 37 8 164 37 282 64 1437 331 1603 369 1633 370 10 1 83 -13 162 -30z m-112
-336 c-7 -2 -19 -2 -25 0 -7 3 -2 5 12 5 14 0 19 -2 13 -5z m287 -342 c0 -5
-29 -17 -65 -26 l-65 -18 0 -98 0 -97 -82 -25 c-104 -31 -224 -64 -263 -71
-22 -5 -26 -4 -14 4 15 9 260 81 322 94 l27 6 0 90 c0 67 -3 90 -13 90 -20 0
-1917 -476 -1923 -483 -4 -3 -6 -52 -5 -109 l2 -104 -108 -27 c-59 -15 -139
-35 -178 -46 -85 -22 -152 -35 -144 -27 6 6 70 24 284 81 l120 32 3 97 3 98
-40 -7 c-22 -4 -82 -18 -133 -31 -51 -13 -127 -33 -168 -43 -64 -16 -151 -39
-260 -70 l-25 -7 -3 -192 c-2 -173 -4 -192 -19 -192 -10 0 -74 16 -143 35 -69
19 -199 54 -290 78 l-165 44 -3 85 -3 85 -51 12 c-108 25 -158 43 -158 57 0 8
-9 14 -21 14 -20 0 -101 23 -146 41 -23 9 -23 8 -23 -87 0 -87 -2 -96 -17 -91
-10 2 -61 16 -113 30 -150 41 -602 167 -637 178 l-33 11 0 82 0 83 -67 18
c-117 31 -317 85 -336 91 -17 5 -18 0 -15 -75 2 -45 0 -81 -5 -81 -12 0 -348
90 -358 96 -12 7 -12 374 0 374 5 0 53 -12 107 -26 436 -113 666 -172 832
-215 106 -27 198 -51 203 -54 5 -4 6 -30 3 -60 -6 -48 -4 -54 17 -68 13 -9 73
-28 132 -43 59 -15 106 -28 104 -31 -3 -2 -48 6 -102 17 -77 17 -100 19 -109
9 -8 -9 -8 -10 4 -4 13 8 13 6 1 -8 -16 -20 -19 -19 104 -47 50 -11 136 -35
193 -52 56 -17 105 -28 110 -24 4 4 7 46 7 92 0 68 3 84 15 84 8 0 116 -26
240 -59 124 -32 338 -87 476 -122 l251 -64 184 44 c101 23 204 49 229 56 52
15 1325 335 1990 500 124 30 245 62 270 70 54 16 70 18 70 6z m-2115 -101 c-3
-5 -14 -10 -23 -9 -14 0 -13 2 3 9 27 11 27 11 20 0z m-1782 -77 c89 -24 97
-28 82 -42 -9 -9 -32 -16 -55 -16 -36 0 -40 -2 -41 -25 -1 -14 -2 -32 -3 -42
-2 -29 -14 -31 -85 -9 l-71 22 0 75 0 76 38 -6 c20 -4 81 -19 135 -33z m3144
-345 c-2 -29 -3 -8 -3 47 0 55 1 79 3 53 2 -26 2 -71 0 -100z m-3000 -14 c-3
-3 -12 -4 -19 -1 -8 3 -5 6 6 6 11 1 17 -2 13 -5z m2777 -114 c-9 -9 -164 -54
-306 -88 l-68 -17 0 -222 c0 -122 -3 -224 -8 -227 -4 -2 -24 -7 -44 -11 l-37
-7 -3 90 -3 89 -88 -26 -89 -26 4 -178 c2 -98 2 -180 -2 -181 -3 -2 -17 -6
-32 -10 l-28 -6 0 198 0 198 98 27 c53 15 107 27 120 27 22 0 22 2 22 133 l0
134 78 16 c42 9 140 35 217 56 145 41 187 49 169 31z m-4150 -149 c3 -53 6
-616 6 -1251 l0 -1155 58 -22 c78 -29 168 -61 367 -131 223 -79 1161 -415
1245 -446 228 -85 286 -106 293 -106 4 0 7 598 7 1329 l0 1329 53 -15 c28 -8
69 -19 90 -25 30 -8 35 -13 26 -24 -8 -10 -8 -14 0 -14 6 0 10 -3 10 -7 -4
-24 7 -31 64 -48 34 -9 79 -24 100 -31 l37 -14 0 35 c0 28 4 35 20 35 20 0 20
-7 20 -1400 0 -770 1 -1400 3 -1400 1 0 43 13 92 28 118 38 153 46 140 34 -5
-5 -59 -25 -120 -45 l-110 -35 -3 -66 c-2 -50 -7 -66 -17 -66 -8 0 -15 4 -15
9 0 5 -12 11 -27 14 -54 11 -343 129 -337 138 3 5 -1 6 -9 3 -13 -5 -105 26
-180 60 -17 8 -70 28 -117 45 -47 16 -114 41 -150 54 -36 13 -124 46 -197 73
-72 26 -130 51 -128 54 2 3 -7 6 -18 6 -21 1 -187 60 -252 89 -16 7 -61 23
-100 35 -38 13 -90 31 -115 41 -25 10 -128 48 -230 84 -102 37 -266 96 -365
132 -99 36 -199 72 -222 81 l-43 15 0 1352 0 1352 59 -15 58 -14 7 -97z m4284
-58 l-78 -25 0 -194 c0 -117 -4 -194 -10 -194 -5 0 -8 73 -7 188 1 103 0 193
-3 201 -4 10 14 19 65 31 102 27 122 22 33 -7z m552 -1128 c0 -717 -3 -1085
-10 -1085 -7 0 -10 368 -10 1085 0 717 3 1085 10 1085 7 0 10 -368 10 -1085z
m-214 -951 c-2 -6 -30 -19 -63 -28 -32 -10 -76 -24 -98 -31 -65 -21 -111 -29
-100 -17 6 6 65 27 133 48 l122 37 2 1011 3 1011 3 -1010 c1 -555 0 -1015 -2
-1021z m-3856 1671 c25 -8 155 -44 290 -81 135 -36 292 -79 350 -95 58 -16
114 -29 125 -29 20 0 20 -6 17 -467 -1 -257 -4 -468 -5 -469 -1 -1 -81 21
-177 50 l-175 52 -5 339 -5 339 -76 22 c-42 12 -91 25 -109 29 l-33 7 5 -107
c5 -85 3 -108 -8 -112 -11 -4 -329 79 -340 89 -3 3 -6 302 -4 410 0 20 7 29
28 36 29 11 51 8 122 -13z m1447 -61 c-3 -3 -12 -4 -19 -1 -8 3 -5 6 6 6 11 1
17 -2 13 -5z m110 -30 c-3 -3 -12 -4 -19 -1 -8 3 -5 6 6 6 11 1 17 -2 13 -5z
m1841 -154 c9 -6 53 -24 97 -39 46 -17 74 -32 65 -35 -18 -6 -256 -73 -395
-110 -55 -15 -115 -32 -132 -37 l-33 -11 0 -114 c0 -63 1 -114 3 -114 1 0 26
7 55 14 30 8 61 12 70 9 9 -4 13 -2 9 3 -5 9 87 42 214 75 48 13 85 7 73 -12
-4 -8 -9 -7 -15 2 -7 11 -9 11 -9 1 0 -9 -7 -11 -20 -7 -11 3 -28 2 -37 -4
-16 -9 -15 -10 8 -11 15 0 41 -3 58 -6 25 -5 31 -3 31 11 0 12 5 15 17 11 9
-4 45 -14 79 -22 35 -9 61 -20 58 -25 -5 -9 -127 -47 -329 -104 -71 -20 -160
-45 -197 -56 l-68 -20 0 -200 c0 -156 -3 -200 -12 -197 -7 2 -79 25 -160 51
l-148 48 -1 350 c-1 192 -2 354 -3 361 -1 6 13 15 29 20 449 122 652 176 663
177 7 1 20 -4 30 -9z m-4539 -377 c-1 -124 -6 -223 -12 -230 -6 -9 -6 -13 3
-13 10 0 10 -3 0 -15 -7 -8 -10 -25 -6 -40 4 -14 2 -25 -4 -25 -5 0 -10 -9
-10 -19 0 -10 -7 -21 -15 -25 -11 -4 -15 1 -15 19 0 16 -6 25 -15 25 -11 0
-15 11 -15 39 0 22 7 46 15 55 17 17 19 26 6 26 -5 0 -15 -16 -22 -35 -16 -42
-27 -45 -29 -7 -4 82 -5 89 -17 85 -15 -6 -17 -43 -3 -43 6 0 10 -9 10 -20 0
-11 -4 -20 -9 -20 -13 0 -23 65 -16 103 8 41 -9 87 -32 87 -37 0 -93 21 -93
35 0 8 8 15 18 16 14 0 14 2 -3 9 -17 7 -17 9 -2 9 21 1 23 21 2 21 -8 0 -15
4 -15 10 0 5 7 7 15 4 8 -4 15 -1 15 5 0 6 -7 11 -15 11 -8 0 -15 5 -15 11 0
6 7 9 15 5 8 -3 15 -1 15 4 0 6 -10 10 -22 11 -13 0 -17 3 -9 6 11 4 11 7 0
14 -7 4 -11 10 -9 12 8 8 254 85 273 86 17 1 18 -12 16 -216z m6507 50 c16 -6
16 -7 -2 -15 -15 -7 -13 -7 9 -5 30 5 31 0 21 -65 -7 -40 -26 -48 -64 -28 -10
6 -30 11 -44 12 -23 2 -26 7 -26 40 0 37 1 38 38 39 21 1 28 3 17 6 -11 3 -24
9 -29 14 -12 11 53 12 80 2z m-5313 -64 l152 -41 -3 -317 -3 -318 74 -22 c41
-12 91 -25 112 -28 l38 -6 -5 82 c-3 55 -1 84 6 87 6 2 74 -14 151 -37 77 -23
159 -46 183 -52 37 -9 59 -27 32 -27 -6 0 -11 -68 -12 -169 l-3 -170 -85 30
c-79 28 -172 59 -177 59 -2 0 -3 -83 -3 -185 0 -130 -3 -185 -11 -185 -12 0
-153 45 -276 87 l-73 26 0 186 0 186 -152 46 -153 45 -3 382 -2 382 31 0 c17
0 99 -18 182 -41z m-1872 -38 c-8 -5 -20 -7 -28 -4 -21 8 -15 13 15 13 20 0
23 -3 13 -9z m5042 -323 c4 -118 3 -188 -3 -188 -6 0 -10 76 -10 192 0 105 2
189 4 187 2 -2 6 -88 9 -191z m1592 122 c3 -5 -13 -14 -35 -20 l-40 -11 0
-115 c0 -98 -2 -116 -17 -121 -9 -4 -19 -1 -21 5 -2 7 -14 12 -26 12 -20 0
-23 -5 -22 -40 0 -22 4 -40 8 -40 4 0 8 5 8 10 0 6 8 10 18 9 10 0 12 -3 4 -6
-6 -2 -10 -9 -6 -14 3 -5 -6 -13 -20 -19 -14 -5 -26 -16 -26 -25 0 -21 -56
-20 -64 1 -3 9 -6 85 -6 169 l0 154 68 20 c135 40 168 45 177 31z m-6098 -42
c-3 -7 -5 -2 -5 12 0 14 2 19 5 13 2 -7 2 -19 0 -25z m43 -13 c0 -8 -4 -15
-10 -15 -5 0 -10 7 -10 15 0 8 5 15 10 15 6 0 10 -7 10 -15z m6584 -41 c7 -28
0 -64 -13 -64 -5 0 -22 3 -38 6 -25 5 -29 10 -28 37 1 24 6 33 25 38 42 12 48
10 54 -17z m-6570 1 c-7 -17 -20 -20 -28 -6 -7 10 3 21 20 21 8 0 11 -6 8 -15z
m6 -29 c0 -2 -8 -10 -17 -17 -16 -13 -17 -12 -4 4 13 16 21 21 21 13z m37 -32
c-3 -3 -12 -4 -19 -1 -8 3 -5 6 6 6 11 1 17 -2 13 -5z m13 -78 c0 -3 -4 -8
-10 -11 -5 -3 -10 -1 -10 4 0 6 5 11 10 11 6 0 10 -2 10 -4z m30 -36 c0 -5 -4
-10 -10 -10 -5 0 -10 5 -10 10 0 6 5 10 10 10 6 0 10 -4 10 -10z m5867 -45 c2
-16 -1 -25 -10 -25 -11 0 -16 35 -8 59 3 11 15 -12 18 -34z m-5902 15 c3 -5 1
-10 -4 -10 -6 0 -11 5 -11 10 0 6 2 10 4 10 3 0 8 -4 11 -10z m-525 -20 c13
-9 13 -10 0 -9 -8 0 -24 4 -35 9 l-20 9 20 0 c11 0 27 -4 35 -9z m-1 -26 c23
-9 39 -20 36 -24 -3 -5 -57 -25 -119 -45 -111 -35 -114 -37 -119 -68 -3 -18
-1 -36 4 -41 5 -6 9 -20 9 -33 0 -13 3 -23 8 -23 4 0 77 21 162 46 85 25 160
46 165 47 16 3 115 -26 115 -34 0 -7 -378 -134 -419 -140 -20 -4 -25 3 -41 54
-10 31 -14 57 -8 57 5 0 3 7 -6 15 -8 9 -18 32 -22 53 -4 20 -13 52 -21 71
-17 39 -14 43 52 70 58 23 138 22 204 -5z m521 -64 c0 -5 -2 -10 -4 -10 -3 0
-8 5 -11 10 -3 6 -1 10 4 10 6 0 11 -4 11 -10z m4617 -157 c-6 -5 -563 -173
-574 -173 -2 0 -3 4 -3 8 0 10 8 13 290 98 118 35 230 69 248 75 32 10 32 11
34 77 l2 67 3 -74 c2 -40 2 -75 0 -78z m-549 25 c-3 -7 -37 -23 -76 -36 l-72
-23 0 -160 c0 -87 -3 -159 -7 -159 -5 0 -18 -3 -31 -6 l-22 -6 2 173 3 172 95
28 c111 33 113 33 108 17z m1869 -70 c-2 -13 -4 -3 -4 22 0 25 2 35 4 23 2
-13 2 -33 0 -45z m110 16 c-3 -3 -12 -4 -19 -1 -8 3 -5 6 6 6 11 1 17 -2 13
-5z m-6007 -139 c0 -30 -2 -55 -5 -55 -3 0 -33 14 -67 31 l-62 31 45 23 c24
12 54 23 67 24 20 1 22 -3 22 -54z m6120 -9 c0 -2 -7 -7 -16 -10 -8 -3 -12 -2
-9 4 6 10 25 14 25 6z m-117 -33 c15 -4 17 -13 15 -51 -3 -44 -5 -47 -30 -47
-16 1 -28 -5 -28 -12 0 -7 -5 -13 -11 -13 -6 0 -8 9 -4 20 5 14 2 20 -10 20
-10 0 -14 -5 -9 -12 6 -10 4 -10 -7 0 -7 6 -26 12 -43 12 -16 0 -26 3 -23 7 4
3 2 11 -3 18 -6 7 -5 23 3 44 l12 32 60 -6 c33 -4 68 -9 78 -12z m-1855 -185
l-3 -111 -42 -18 -43 -18 0 118 0 119 38 10 c20 5 41 10 45 11 4 1 6 -49 5
-111z m2108 73 c-16 -29 -40 -42 -114 -61 -31 -8 -42 -15 -38 -26 3 -8 -1 -14
-10 -14 -10 0 -13 -6 -10 -18 7 -22 -17 -58 -32 -48 -7 4 -12 17 -12 29 0 15
3 18 8 9 5 -7 8 11 8 44 l-1 56 85 28 c47 16 95 29 108 29 22 1 22 0 8 -28z
m-1509 -153 c-2 -29 -3 -8 -3 47 0 55 1 79 3 53 2 -26 2 -71 0 -100z m1260 16
c-3 -3 -12 -4 -19 -1 -8 3 -5 6 6 6 11 1 17 -2 13 -5z m-250 -60 c-3 -3 -12
-4 -19 -1 -8 3 -5 6 6 6 11 1 17 -2 13 -5z m-397 -23 c-30 -18 -1578 -530
-1815 -601 -33 -10 -131 -43 -218 -74 -87 -30 -157 -50 -154 -43 2 6 26 18 53
25 27 8 58 18 69 23 11 4 61 21 110 37 141 46 994 329 1485 492 399 133 518
169 470 141z m740 -18 c0 -10 -4 -24 -9 -31 -5 -9 -8 -3 -7 17 1 32 16 45 16
14z m-2222 -5 c-2 -7 -42 -26 -89 -41 l-84 -28 0 -106 c0 -82 -3 -107 -14
-111 -8 -2 -11 0 -8 5 5 7 11 180 8 205 -1 4 -18 1 -38 -6 -72 -25 -93 -27
-93 -12 0 8 19 18 48 25 26 7 94 27 152 46 121 39 123 39 118 23z m-1958 -90
c10 -6 7 -7 -10 -2 -14 3 -32 11 -40 16 -10 6 -7 7 10 2 14 -3 32 -11 40 -16z
m-2285 -54 c66 -25 174 -65 240 -89 179 -65 335 -127 335 -134 0 -4 -38 -22
-85 -40 l-86 -33 -77 29 c-218 85 -339 139 -358 159 -22 23 -94 136 -94 148 0
9 -5 10 125 -40z m6257 -64 c2 -5 15 -11 29 -12 16 -1 25 -7 22 -14 -2 -7 1
-15 8 -20 8 -5 10 -3 4 7 -6 11 -5 12 5 2 11 -10 17 -10 29 0 11 9 9 3 -4 -20
-10 -18 -22 -30 -26 -28 -4 3 -9 -1 -12 -9 -6 -14 -107 -57 -258 -109 -141
-48 -136 -42 -150 -174 -9 -82 -16 -113 -26 -113 -7 0 -13 7 -13 15 0 8 -7 15
-15 15 -20 0 -19 24 1 45 9 9 13 19 9 23 -4 4 -10 1 -12 -5 -3 -7 -11 -13 -20
-13 -10 0 -12 6 -8 20 8 27 -19 70 -44 70 -11 0 -84 -23 -163 -51 -78 -28
-189 -67 -245 -87 -94 -33 -103 -38 -104 -62 -4 -144 -1 -135 -33 -133 -16 1
-79 23 -140 49 -190 79 -235 115 -153 122 21 2 35 7 31 13 -3 6 5 8 23 4 15
-3 22 -2 14 1 -14 7 6 16 119 54 30 10 109 37 174 59 66 23 129 39 140 36 12
-3 15 -2 7 1 -17 8 29 27 214 89 72 24 159 55 195 69 35 15 71 24 78 21 7 -2
10 0 7 5 -3 6 1 10 10 10 9 0 32 9 53 19 20 10 42 18 47 17 6 0 14 16 19 36 8
33 13 37 55 46 63 13 129 14 133 2z m-2223 -85 c-3 -2 -58 -20 -121 -40 -64
-19 -123 -38 -132 -41 -9 -3 -16 -2 -16 4 0 5 35 20 78 32 42 12 97 28 122 35
47 14 77 18 69 10z m2505 -56 c19 -71 48 -101 111 -119 61 -17 64 -27 13 -40
-88 -22 -107 -41 -127 -127 -18 -76 -31 -70 -47 20 -10 56 -38 85 -100 103
-49 14 -73 34 -41 34 6 0 35 11 63 24 53 24 62 38 84 124 6 23 14 42 19 42 4
0 15 -27 25 -61z m-6685 -47 c14 -48 36 -72 83 -88 42 -14 46 -31 9 -39 -47
-10 -78 -41 -96 -95 -16 -49 -35 -59 -35 -19 0 59 -41 105 -103 118 -40 8 -31
23 28 46 47 19 51 24 70 77 11 32 22 54 26 50 3 -4 11 -26 18 -50z m808 1 c21
-10 41 -22 44 -27 4 -5 12 -5 18 -2 6 4 11 3 11 -3 0 -5 8 -9 18 -9 17 1 366
-124 411 -147 23 -12 22 -13 -35 -39 -128 -58 -99 -59 -288 5 -94 32 -178 64
-186 71 -8 7 -17 11 -20 8 -3 -3 -7 32 -10 78 -3 45 -4 82 -3 82 1 0 19 -8 40
-17z m5140 -190 c-3 -10 -5 -4 -5 12 0 17 2 24 5 18 2 -7 2 -21 0 -30z m-5352
-83 c-16 -7 -17 -9 -3 -9 9 -1 25 -4 35 -7 15 -5 15 -4 3 5 -9 6 -10 11 -3 11
6 0 19 3 29 7 11 4 15 3 11 -4 -4 -7 10 -11 41 -11 50 0 102 -16 102 -30 0
-11 -119 -56 -128 -48 -3 3 -14 -1 -24 -11 -27 -24 -115 -19 -140 9 -10 11
-18 17 -18 13 0 -4 -9 0 -20 10 -13 12 -17 22 -11 28 12 12 31 0 27 -16 -1 -7
-1 -9 1 -4 3 4 10 4 16 0 7 -4 6 1 -2 10 -16 20 -17 19 34 40 41 16 87 23 50
7z m5413 -36 c27 -8 29 -24 2 -24 -11 0 -20 5 -20 10 0 6 -9 10 -20 10 -11 0
-20 -4 -20 -10 0 -5 6 -10 14 -10 7 0 25 -6 40 -14 l26 -13 -23 -11 -22 -11
23 0 c12 -1 22 -7 22 -13 0 -9 4 -8 10 2 8 13 10 13 10 -1 0 -24 -15 -33 -130
-74 -58 -20 -134 -48 -170 -60 l-64 -24 -36 22 c-91 55 -100 70 -45 70 14 0
23 2 21 5 -9 8 197 93 212 87 7 -3 10 0 7 6 -4 6 -1 9 6 8 20 -3 89 29 89 41
0 11 33 13 68 4z m-4248 -43 c0 -4 8 -7 18 -7 16 -1 529 -190 722 -267 54 -21
84 -39 82 -47 -2 -10 0 -11 10 -3 12 11 61 -5 218 -69 24 -10 21 -12 -45 -43
-69 -31 -71 -32 -120 -17 -27 7 -70 22 -95 33 -25 10 -108 41 -185 70 -77 28
-158 59 -180 69 -22 10 -107 44 -190 75 -207 79 -365 147 -365 156 0 4 8 10
19 14 10 3 28 13 38 23 20 17 73 26 73 13z m3132 -63 c32 -12 58 -26 58 -30 0
-3 -19 -13 -42 -21 -98 -34 -252 -90 -388 -140 -123 -45 -145 -56 -148 -75 -2
-12 -8 -20 -13 -17 -5 4 -9 -5 -9 -18 0 -21 -4 -23 -37 -23 -36 1 -68 17 -56
29 14 15 -80 -4 -137 -27 -36 -15 -70 -24 -78 -21 -7 2 -11 1 -8 -3 3 -5 -10
-14 -27 -20 -38 -14 -82 -4 -124 26 -16 11 -37 22 -48 24 -14 3 -7 8 27 20 26
9 57 14 70 11 16 -3 19 -2 10 5 -11 7 -10 10 3 16 9 3 21 4 26 0 5 -3 9 0 9 6
0 7 7 9 16 6 10 -4 13 -2 8 6 -5 8 -2 9 9 5 9 -3 19 -1 23 4 3 6 15 9 25 6 12
-3 17 -1 12 6 -4 6 2 8 15 5 12 -4 20 -2 17 2 -3 5 25 18 62 31 38 12 110 37
162 55 108 39 104 38 96 22 -4 -7 0 -5 9 5 10 13 22 17 38 12 14 -4 18 -3 11
2 -15 11 302 123 332 118 11 -2 46 -14 77 -27z m-4295 16 c-3 -3 -12 -4 -19
-1 -8 3 -5 6 6 6 11 1 17 -2 13 -5z m-134 -196 c18 -24 19 -34 11 -75 l-9 -48
-77 -3 -78 -3 0 -80 c0 -67 3 -80 15 -75 8 3 65 8 127 12 112 6 113 6 137 -19
22 -24 23 -32 22 -143 -2 -127 -13 -163 -58 -183 -15 -7 -103 -11 -231 -11
-232 0 -246 4 -258 65 -3 19 -2 47 3 62 9 27 13 28 84 33 l74 5 3 73 3 73
-132 -2 c-159 -2 -158 -3 -161 115 -5 158 -2 178 32 209 l31 27 221 -2 221 -3
20 -27z m1122 8 c11 -7 52 -25 90 -39 90 -33 351 -133 480 -184 55 -22 142
-55 192 -74 51 -19 93 -37 93 -41 0 -5 -3 -7 -7 -6 -5 1 -21 -4 -38 -11 -16
-7 -60 -23 -98 -36 l-67 -23 -83 35 c-45 19 -158 63 -252 99 -93 35 -179 68
-190 73 -85 37 -144 61 -150 61 -4 0 -21 6 -38 14 -18 7 -63 26 -101 42 l-69
28 44 18 c24 10 62 27 84 37 48 24 84 26 110 7z m3597 -26 c34 -17 73 -37 86
-44 l23 -14 -28 -10 c-82 -30 -331 -117 -423 -148 -58 -20 -118 -43 -135 -52
-23 -13 -37 -15 -62 -8 -18 6 -33 14 -33 18 0 4 -15 8 -32 8 -21 0 -28 3 -20
9 10 6 10 10 -3 21 -22 18 -19 26 18 40 17 7 46 18 62 25 17 7 118 45 225 84
107 39 209 78 225 86 17 7 31 14 32 14 0 1 30 -13 65 -29z m1578 15 c0 -2 -16
-20 -35 -39 l-35 -35 0 -241 0 -240 -275 0 c-273 0 -276 0 -299 -22 -60 -61
-56 -80 -56 246 0 204 3 296 11 296 15 0 36 -23 32 -36 -2 -6 4 -17 14 -25 9
-8 14 -9 10 -2 -4 6 -2 13 5 15 8 3 -2 18 -25 37 -20 18 -37 37 -37 42 0 5
148 9 345 9 190 0 345 -2 345 -5z m-2450 -195 c0 -5 -4 -10 -9 -10 -6 0 -13 5
-16 10 -3 6 1 10 9 10 9 0 16 -4 16 -10z m-33 -32 c-3 -8 -6 -5 -6 6 -1 11 2
17 5 13 3 -3 4 -12 1 -19z m28 -28 c3 -5 1 -10 -4 -10 -6 0 -11 5 -11 10 0 6
2 10 4 10 3 0 8 -4 11 -10z m-120 -79 c-2 -4 6 -7 18 -7 18 1 23 -5 25 -32 5
-45 -6 -55 -93 -86 l-75 -27 -65 35 c-35 19 -59 37 -52 39 161 71 258 102 242
78z m-2691 -93 c-5 -8 -2 -9 9 -5 9 3 19 2 22 -3 4 -6 14 -10 23 -10 9 0 29
-6 44 -14 14 -8 43 -19 65 -26 21 -7 61 -22 88 -35 28 -12 66 -29 85 -37 l35
-16 -60 -26 c-48 -22 -64 -25 -83 -17 -29 14 -35 14 -27 1 8 -13 4 -13 -39 5
-37 16 -50 29 -18 19 13 -5 14 -4 3 4 -8 6 -20 8 -27 5 -7 -2 -24 3 -38 12
-14 10 -26 14 -26 11 0 -7 -48 18 -150 78 -34 20 -40 26 -23 26 12 0 25 4 28
10 6 9 57 27 83 29 8 1 10 -4 6 -11z m3719 -36 l37 -15 -37 -23 c-36 -22 -75
-35 -43 -14 8 5 10 10 5 10 -6 0 -18 -9 -28 -20 -23 -27 -60 -25 -118 7 -27
14 -48 27 -47 29 2 1 30 11 63 23 70 24 115 25 168 3z m-683 -146 c0 -2 -7 -7
-16 -10 -8 -3 -12 -2 -9 4 6 10 25 14 25 6z m-50 -26 c16 -10 16 -10 -30 -14
-33 -3 -80 -18 -80 -26 0 -4 9 -10 21 -13 12 -3 19 -11 17 -18 -7 -21 -27 -22
-35 -2 -9 25 -24 33 -50 26 -14 -3 -23 -1 -23 6 0 6 12 11 28 12 15 0 50 9 77
19 63 22 57 21 75 10z m19 -23 c-8 -7 -18 -20 -22 -29 -7 -19 -47 -25 -47 -7
0 5 -4 7 -10 4 -5 -3 -10 0 -10 8 0 16 27 30 40 22 4 -3 19 -1 32 4 31 13 36
13 17 -2z m55 -11 c-3 -8 3 -16 15 -19 11 -2 22 0 24 7 2 6 2 0 0 -14 -6 -35
-13 -38 -30 -12 -9 12 -24 22 -34 22 -21 0 -26 16 -6 23 23 10 36 7 31 -7z
m101 -6 c3 -6 -1 -13 -10 -16 -19 -8 -30 0 -20 15 8 14 22 14 30 1z m-369 -25
c-6 -18 15 -20 32 -3 6 6 15 9 19 5 12 -13 -40 -57 -66 -57 -24 0 -68 19 -46
20 6 0 3 5 -5 10 -12 7 -7 12 20 24 45 19 54 20 46 1z m375 -19 l24 6 -25 -15
c-25 -14 -50 -6 -50 15 0 7 5 6 13 0 7 -6 24 -9 38 -6z m-467 -15 c4 -5 -4 -7
-16 -5 -14 3 -11 0 7 -7 17 -7 35 -15 40 -19 17 -13 77 -23 84 -14 9 13 71 34
71 24 0 -5 -8 -11 -17 -13 -11 -3 -7 -5 10 -6 15 0 27 4 27 9 0 6 12 10 28 9
16 0 21 -3 12 -6 -8 -3 -18 -10 -21 -16 -4 -5 -26 -10 -50 -10 -24 -1 -48 -7
-54 -13 -5 -7 -19 -14 -30 -17 -11 -3 3 -6 30 -7 l50 -2 -50 -14 c-55 -15
-111 -19 -65 -4 24 8 24 8 -5 9 -16 0 -37 -4 -45 -9 -12 -8 -12 -10 -1 -10 8
0 12 -3 9 -6 -10 -9 -98 37 -98 52 0 8 -6 11 -15 8 -11 -5 -13 -2 -9 10 5 13
1 15 -27 10 -33 -6 -32 -5 12 19 64 35 112 46 123 28z m316 -1 c0 -5 -5 -10
-11 -10 -5 0 -7 5 -4 10 3 6 8 10 11 10 2 0 4 -4 4 -10z m75 -20 c8 -13 -5
-13 -25 0 -13 8 -13 10 2 10 9 0 20 -4 23 -10z m-70 -20 c-3 -5 -12 -10 -18
-10 -7 0 -6 4 3 10 19 12 23 12 15 0z m-90 -30 c-3 -5 -23 -9 -43 -9 l-37 2
35 7 c52 11 52 11 45 0z"/>
<path d="M1963 5435 c0 -27 2 -38 4 -22 2 15 2 37 0 50 -2 12 -4 0 -4 -28z"/>
<path d="M1860 5315 c0 -8 2 -15 4 -15 2 0 6 7 10 15 3 8 1 15 -4 15 -6 0 -10
-7 -10 -15z"/>
<path d="M1862 5150 c0 -19 2 -27 5 -17 2 9 2 25 0 35 -3 9 -5 1 -5 -18z"/>
<path d="M1861 5084 c0 -11 3 -14 6 -6 3 7 2 16 -1 19 -3 4 -6 -2 -5 -13z"/>
<path d="M8760 5045 c-3 -28 1 -99 5 -104 2 -2 27 2 54 9 47 11 51 14 51 41 0
27 -3 29 -37 29 -42 0 -57 7 -66 30 -4 11 -6 10 -7 -5z"/>
<path d="M8650 5039 c0 -5 5 -7 10 -4 6 3 10 8 10 11 0 2 -4 4 -10 4 -5 0 -10
-5 -10 -11z"/>
<path d="M1862 5015 c0 -16 2 -22 5 -12 2 9 2 23 0 30 -3 6 -5 -1 -5 -18z"/>
<path d="M8541 4904 c0 -11 3 -14 6 -6 3 7 2 16 -1 19 -3 4 -6 -2 -5 -13z"/>
<path d="M1752 4840 c0 -14 2 -19 5 -12 2 6 2 18 0 25 -3 6 -5 1 -5 -13z"/>
<path d="M1751 4594 c0 -11 3 -14 6 -6 3 7 2 16 -1 19 -3 4 -6 -2 -5 -13z"/>
<path d="M1835 4564 c-20 -15 -12 -17 19 -5 11 4 15 10 10 13 -5 4 -18 0 -29
-8z"/>
<path d="M8510 4355 c0 -8 5 -15 10 -15 6 0 10 7 10 15 0 8 -4 15 -10 15 -5 0
-10 -7 -10 -15z"/>
<path d="M1721 4303 c-1 -12 4 -25 9 -28 12 -7 12 2 0 30 -8 19 -9 19 -9 -2z"/>
<path d="M8648 4203 c6 -2 18 -2 25 0 6 3 1 5 -13 5 -14 0 -19 -2 -12 -5z"/>
<path d="M8648 4173 c6 -2 18 -2 25 0 6 3 1 5 -13 5 -14 0 -19 -2 -12 -5z"/>
<path d="M8736 4108 c5 -8 2 -9 -9 -5 -10 3 -17 2 -17 -3 0 -12 6 -12 38 -3
18 4 20 8 10 14 -19 12 -30 11 -22 -3z"/>
<path d="M1895 4070 c3 -5 10 -10 16 -10 5 0 9 5 9 10 0 6 -7 10 -16 10 -8 0
-12 -4 -9 -10z"/>
<path d="M2125 8420 c-4 -7 13 -8 52 -4 76 9 80 14 10 14 -31 0 -59 -5 -62
-10z"/>
<path d="M2410 8420 c0 -5 5 -10 10 -10 6 0 10 5 10 10 0 6 -4 10 -10 10 -5 0
-10 -4 -10 -10z"/>
<path d="M1963 8280 c0 -25 2 -35 4 -22 2 12 2 32 0 45 -2 12 -4 2 -4 -23z"/>
<path d="M2370 8282 c-14 -2 -31 -11 -37 -20 -15 -19 -17 -82 -3 -82 13 0 50
37 50 51 0 5 4 8 8 5 12 -7 14 -109 3 -137 -5 -13 -10 -19 -10 -13 -1 7 -14
14 -31 16 -29 4 -30 3 -30 -34 l0 -38 70 0 71 0 -3 107 c-3 107 -3 108 -28
108 -18 0 -24 5 -22 17 3 20 -6 25 -38 20z m77 -104 c-3 -7 -5 -2 -5 12 0 14
2 19 5 13 2 -7 2 -19 0 -25z m1 -120 c-2 -10 -11 -12 -27 -8 -23 5 -23 6 -6
23 19 20 40 10 33 -15z m-61 -14 c-3 -3 -12 -4 -19 -1 -8 3 -5 6 6 6 11 1 17
-2 13 -5z"/>
<path d="M2125 8260 c-3 -11 -15 -20 -26 -20 -18 0 -19 -8 -19 -105 l0 -105
75 0 75 0 0 41 0 42 -39 -6 c-38 -5 -39 -4 -46 29 -6 37 0 58 16 49 5 -4 9 0
9 8 0 9 -8 14 -17 12 -10 -1 -12 0 -5 2 7 3 10 8 7 13 -3 5 0 12 6 16 8 4 9 3
5 -4 -4 -7 -2 -12 3 -12 6 0 11 -9 11 -20 0 -15 7 -20 26 -20 25 0 25 2 19 43
-10 56 -10 57 -55 57 -30 0 -40 -5 -45 -20z"/>
<path d="M1991 8214 c0 -11 3 -14 6 -6 3 7 2 16 -1 19 -3 4 -6 -2 -5 -13z"/>
<path d="M1963 8115 c0 -60 2 -92 4 -71 3 29 7 36 14 25 6 -9 9 1 9 33 0 25 2
52 3 60 2 7 2 10 0 6 -10 -18 -22 -6 -26 25 -2 17 -4 -17 -4 -78z"/>
<path d="M1981 7984 c0 -11 3 -14 6 -6 3 7 2 16 -1 19 -3 4 -6 -2 -5 -13z"/>
<path d="M5025 7480 c-126 -26 -423 -87 -660 -135 -490 -99 -595 -122 -601
-128 -7 -7 218 -57 256 -57 50 0 397 62 650 115 118 25 305 64 416 87 l201 42
254 -52 c140 -28 351 -72 469 -97 434 -93 489 -98 645 -68 66 13 127 27 135
30 18 6 11 8 -830 178 -366 74 -674 135 -685 134 -11 0 -123 -22 -250 -49z"/>
<path d="M5125 7274 c-88 -18 -199 -41 -247 -51 l-88 -17 0 -51 0 -51 83 -17
c45 -9 151 -32 236 -51 l155 -35 240 50 c133 28 249 52 259 55 13 4 17 16 17
55 0 27 -2 49 -5 49 -5 0 -421 82 -475 94 -8 1 -87 -12 -175 -30z m250 -98
c97 -25 98 -25 -32 -52 -83 -17 -115 -14 -232 22 -25 8 -4 16 86 34 48 10 88
18 88 19 0 0 40 -10 90 -23z"/>
<path d="M2821 6930 c1 -55 5 -100 10 -100 5 0 9 11 9 24 0 14 5 28 10 31 6 3
10 21 10 38 0 24 3 28 10 17 5 -8 10 -26 11 -40 0 -21 2 -22 8 -7 4 10 4 39 1
65 -4 40 -9 47 -38 59 l-33 13 2 -100z"/>
<path d="M3093 6933 c9 -2 23 -2 30 0 6 3 -1 5 -18 5 -16 0 -22 -2 -12 -5z"/>
<path d="M3175 6915 c22 -8 54 -14 70 -14 22 1 16 4 -25 14 -72 18 -96 18 -45
0z"/>
<path d="M3158 6893 c7 -3 16 -2 19 1 4 3 -2 6 -13 5 -11 0 -14 -3 -6 -6z"/>
<path d="M3281 6891 c-8 -5 5 -9 35 -9 36 0 44 2 29 8 -26 11 -47 12 -64 1z"/>
<path d="M3405 6860 c7 -12 32 -13 39 -2 2 4 -7 9 -20 10 -15 1 -22 -2 -19 -8z"/>
<path d="M3464 6852 c4 -8 1 -12 -10 -12 -10 0 -15 -2 -12 -5 3 -3 23 -1 44 4
21 5 31 9 22 10 -9 1 -24 4 -34 8 -12 4 -15 3 -10 -5z"/>
<path d="M3410 6829 c0 -5 5 -7 10 -4 6 3 10 8 10 11 0 2 -4 4 -10 4 -5 0 -10
-5 -10 -11z"/>
<path d="M3545 6830 c3 -5 18 -10 32 -10 32 0 28 5 -10 14 -19 4 -26 3 -22 -4z"/>
<path d="M3498 6823 c7 -3 16 -2 19 1 4 3 -2 6 -13 5 -11 0 -14 -3 -6 -6z"/>
<path d="M3657 6800 c15 -16 63 -23 63 -9 0 5 -6 9 -12 9 -7 0 -24 3 -38 6
-20 6 -23 4 -13 -6z"/>
<path d="M3745 6781 c-19 -8 -19 -8 3 -20 12 -6 33 -9 48 -5 19 5 25 4 20 -5
-4 -6 -3 -11 3 -11 5 0 18 -3 28 -6 15 -5 15 -4 3 5 -13 9 -13 11 1 11 9 0 29
-6 45 -14 37 -18 124 -29 124 -16 0 9 -28 14 -75 13 -11 0 -22 3 -25 7 -9 14
-125 40 -128 30 -2 -6 -11 -10 -19 -10 -9 0 -13 6 -9 15 3 8 4 15 3 14 -1 0
-11 -4 -22 -8z"/>
<path d="M3680 6759 c0 -5 5 -7 10 -4 6 3 10 8 10 11 0 2 -4 4 -10 4 -5 0 -10
-5 -10 -11z"/>
<path d="M4057 6697 c3 -4 12 -6 20 -3 21 8 85 -32 76 -47 -4 -7 1 -5 11 3 10
8 33 13 50 12 42 -3 14 14 -34 21 -19 3 -47 10 -62 15 -31 13 -69 12 -61 -1z"/>
<path d="M4278 6653 c7 -3 16 -2 19 1 4 3 -2 6 -13 5 -11 0 -14 -3 -6 -6z"/>
<path d="M4435 6600 c-3 -6 5 -10 19 -10 14 0 28 5 31 10 3 6 -5 10 -19 10
-14 0 -28 -4 -31 -10z"/>
<path d="M4618 6483 c2 -60 5 -109 6 -110 1 -1 59 -18 129 -36 l127 -34 0 113
0 113 -37 10 c-54 15 -212 51 -221 51 -4 0 -5 -48 -4 -107z"/>
<path d="M2723 6196 c0 -8 13 -16 29 -18 15 -3 28 -1 28 4 0 4 4 8 8 8 10 0
14 -38 6 -69 -4 -20 -7 -22 -15 -10 -8 12 -10 12 -19 -1 -7 -11 -10 -6 -10 23
0 23 -5 37 -13 37 -18 0 -9 -82 11 -97 9 -7 28 -13 42 -13 26 0 27 1 23 58 -6
79 -9 85 -38 80 -14 -3 -25 -1 -25 3 0 5 -6 9 -13 9 -8 0 -14 -6 -14 -14z"/>
<path d="M2750 5744 c0 -16 6 -20 47 -29 46 -9 35 16 -12 31 -28 9 -35 8 -35
-2z"/>
<path d="M4840 5155 c0 -8 12 -17 28 -21 15 -3 44 -10 66 -16 21 -5 41 -7 44
-4 3 3 0 6 -6 6 -7 0 -12 8 -12 18 0 13 -2 14 -9 3 -7 -11 -15 -10 -44 8 -40
25 -67 27 -67 6z"/>
<path d="M5013 4600 c0 -25 2 -35 4 -22 2 12 2 32 0 45 -2 12 -4 2 -4 -23z"/>
<path d="M5013 4355 c0 -27 2 -38 4 -22 2 15 2 37 0 50 -2 12 -4 0 -4 -28z"/>
<path d="M5010 3303 c0 -809 2 -922 15 -927 8 -3 15 -1 15 4 0 6 -4 10 -9 10
-6 0 -10 353 -11 912 0 501 -3 914 -5 917 -3 2 -5 -410 -5 -916z"/>
<path d="M5098 3923 c7 -3 16 -2 19 1 4 3 -2 6 -13 5 -11 0 -14 -3 -6 -6z"/>
<path d="M5140 3720 c0 -22 5 -40 10 -40 6 0 10 18 10 40 0 22 -4 40 -10 40
-5 0 -10 -18 -10 -40z"/>
<path d="M5078 3673 c7 -3 16 -2 19 1 4 3 -2 6 -13 5 -11 0 -14 -3 -6 -6z"/>
<path d="M5097 3634 c-8 -8 1 -24 14 -24 5 0 9 7 9 15 0 15 -12 20 -23 9z"/>
<path d="M5080 3561 c0 -22 5 -43 10 -46 6 -4 10 12 10 39 0 25 -4 46 -10 46
-5 0 -10 -18 -10 -39z"/>
<path d="M5030 3400 c0 -32 4 -40 18 -39 10 0 12 3 5 6 -7 2 -13 17 -13 33 0
16 6 31 13 33 7 3 5 6 -5 6 -14 1 -18 -7 -18 -39z"/>
<path d="M5150 3430 c0 -5 7 -10 15 -10 8 0 15 5 15 10 0 6 -7 10 -15 10 -8 0
-15 -4 -15 -10z"/>
<path d="M5098 3413 c7 -3 16 -2 19 1 4 3 -2 6 -13 5 -11 0 -14 -3 -6 -6z"/>
<path d="M5098 3383 c7 -3 16 -2 19 1 4 3 -2 6 -13 5 -11 0 -14 -3 -6 -6z"/>
<path d="M5150 3370 c0 -5 7 -10 15 -10 8 0 15 5 15 10 0 6 -7 10 -15 10 -8 0
-15 -4 -15 -10z"/>
<path d="M5078 3353 c7 -3 16 -2 19 1 4 3 -2 6 -13 5 -11 0 -14 -3 -6 -6z"/>
<path d="M5070 3310 c0 -5 5 -10 10 -10 6 0 10 5 10 10 0 6 -4 10 -10 10 -5 0
-10 -4 -10 -10z"/>
<path d="M5150 3240 c0 -19 3 -21 12 -12 9 9 9 15 0 24 -9 9 -12 7 -12 -12z"/>
<path d="M5150 3181 c0 -10 -7 -21 -15 -25 -8 -3 -15 -12 -15 -21 0 -8 7 -15
15 -15 20 0 19 -17 -2 -30 -17 -9 -17 -11 0 -21 16 -9 18 -23 15 -100 l-3 -89
-32 0 -33 0 0 -60 c0 -33 -4 -60 -10 -60 -6 0 -7 -23 -3 -60 5 -52 4 -60 -11
-60 -12 0 -16 -10 -16 -41 0 -38 1 -40 28 -37 23 3 27 8 30 41 2 20 7 37 13
37 5 0 9 23 9 51 0 40 3 50 14 46 8 -3 22 1 33 9 17 13 17 15 0 28 -10 8 -27
12 -37 9 -11 -3 -20 0 -20 6 0 6 11 11 25 11 22 0 25 4 25 38 0 21 5 43 12 50
9 9 9 12 0 12 -7 0 -12 9 -12 20 0 11 3 20 8 20 4 0 7 24 7 54 0 30 -4 52 -8
49 -5 -3 -7 31 -5 76 2 45 0 81 -4 81 -5 0 -8 -9 -8 -19z m-50 -452 c0 -5 -4
-9 -10 -9 -5 0 -10 7 -10 16 0 8 5 12 10 9 6 -3 10 -10 10 -16z"/>
<path d="M2790 3170 c0 -5 7 -10 15 -10 21 0 19 -9 -7 -31 -18 -16 -18 -19 -4
-19 9 0 19 7 22 15 4 8 13 15 21 15 12 0 13 -3 3 -15 -10 -12 -6 -17 24 -31
29 -15 40 -15 59 -5 16 8 30 9 47 2 23 -9 22 -10 -12 -10 -27 -1 -38 -5 -38
-16 0 -8 6 -15 14 -15 7 0 29 -7 47 -16 l34 -15 -40 5 c-31 3 -35 2 -20 -5 14
-7 49 -6 108 4 48 7 87 10 87 5 0 -8 -14 -12 -36 -9 -6 1 -24 -5 -40 -13 -31
-17 -28 -19 46 -35 35 -8 48 -7 61 5 8 7 20 14 25 14 5 0 1 -5 -8 -11 -25 -14
-23 -32 2 -24 13 4 22 1 26 -9 3 -9 14 -16 23 -16 12 0 13 2 3 9 -11 6 -9 9 7
14 11 3 20 2 19 -2 -3 -24 6 -31 37 -31 26 0 33 -3 29 -15 -5 -11 1 -15 19
-15 29 0 55 -25 35 -34 -7 -3 0 -2 16 1 19 4 27 2 22 -5 -4 -6 2 -8 15 -5 14
4 26 0 33 -9 6 -8 22 -18 36 -22 14 -4 53 -19 87 -32 68 -27 77 -28 68 -14 -3
6 -2 10 4 10 5 0 12 -4 15 -9 3 -5 15 -7 26 -4 13 4 22 -1 27 -13 5 -11 14
-19 21 -20 6 -1 22 -2 35 -3 17 -1 19 -3 7 -11 -22 -14 36 -32 81 -25 32 6 37
4 42 -16 4 -13 9 -20 13 -16 4 4 16 -1 27 -10 10 -10 20 -17 21 -15 0 2 18 -4
39 -13 21 -9 47 -13 58 -10 15 5 18 3 13 -12 -4 -11 -3 -14 3 -7 4 6 19 10 33
8 14 -1 28 -3 32 -3 4 -1 5 -8 2 -16 -5 -12 3 -15 41 -15 28 0 44 -4 40 -10
-3 -6 1 -7 10 -4 10 4 24 -4 39 -21 23 -26 25 -27 41 -12 14 14 14 17 2 17 -9
0 -17 -4 -19 -10 -1 -5 -8 2 -15 15 -6 14 -7 25 -2 25 5 0 9 -5 9 -11 0 -5 4
-8 8 -5 5 3 22 1 38 -4 16 -4 23 -9 17 -9 -18 -1 -16 -16 3 -35 10 -10 33 -16
65 -16 42 0 49 -3 49 -20 0 -11 5 -20 11 -20 5 0 7 5 4 10 -8 13 8 13 22 -1 6
-6 28 -11 48 -12 29 -1 40 -6 48 -24 5 -13 13 -23 16 -24 3 0 17 -3 31 -5 43
-8 98 -3 118 10 11 7 12 4 4 -10 -5 -11 -7 -26 -4 -34 4 -11 1 -10 -12 3 -19
19 -42 22 -50 8 -4 -5 3 -7 14 -4 11 3 20 1 20 -3 0 -5 9 -15 21 -22 12 -8 19
-10 16 -5 -3 5 -2 15 4 23 6 11 9 7 10 -15 l1 -30 8 30 8 30 1 -27 c1 -18 7
-28 16 -28 12 0 15 11 14 53 l-2 54 -86 28 c-47 16 -90 32 -96 35 -5 4 -30 12
-55 19 -25 7 -63 21 -85 31 -22 10 -60 23 -85 30 -25 7 -63 21 -85 31 -88 40
-152 60 -170 53 -12 -5 -16 -4 -12 3 4 6 -4 14 -19 17 -14 4 -45 15 -68 26
-22 10 -52 21 -66 25 -26 7 -151 51 -185 65 -11 5 -58 22 -105 39 -47 16 -116
42 -155 56 -38 15 -90 34 -115 42 -25 8 -52 17 -60 20 -8 3 -51 19 -95 35 -44
16 -129 46 -190 67 -60 21 -134 48 -164 60 -30 12 -63 19 -75 16 -17 -5 -18
-4 -6 4 13 9 12 11 -3 11 -10 0 -36 9 -57 20 -22 11 -40 16 -40 10z m235 -100
c3 -5 -2 -10 -12 -10 -14 -1 -13 -4 7 -15 33 -19 21 -19 -21 0 -19 8 -26 14
-16 15 9 0 17 5 17 10 0 6 4 10 9 10 6 0 13 -4 16 -10z m615 -220 c22 -11 40
-22 40 -25 0 -6 -49 15 -75 32 -30 20 -9 16 35 -7z m-120 0 c0 -5 -2 -10 -4
-10 -3 0 -8 5 -11 10 -3 6 -1 10 4 10 6 0 11 -4 11 -10z m137 -66 c-3 -3 -12
-4 -19 -1 -8 3 -5 6 6 6 11 1 17 -2 13 -5z m209 -69 c14 -13 13 -15 -5 -15
-21 0 -35 13 -24 24 9 9 13 8 29 -9z m134 -6 c0 -6 -7 -9 -15 -5 -8 3 -15 1
-15 -4 0 -6 -4 -10 -10 -10 -5 0 -10 7 -10 15 0 9 9 15 25 15 14 0 25 -5 25
-11z m42 -59 c2 -6 13 -12 26 -13 12 0 18 -5 13 -10 -9 -9 -61 12 -61 25 0 12
18 10 22 -2z m328 -70 c-8 -5 -22 -9 -30 -9 -10 0 -8 3 5 9 27 12 43 12 25 0z
m44 -71 c-6 -11 -24 -2 -24 11 0 5 7 7 15 4 8 -4 12 -10 9 -15z m102 -4 c16
-8 22 -15 13 -15 -8 0 -24 7 -35 15 -25 19 -14 19 22 0z m249 -86 c15 -7 12
-8 -15 -4 -19 3 -29 2 -22 -1 13 -6 7 -24 -8 -24 -6 0 -7 17 -1 38 2 5 27 0
46 -9z m85 -3 c0 -3 -4 -8 -10 -11 -5 -3 -10 -1 -10 4 0 6 5 11 10 11 6 0 10
-2 10 -4z"/>
<path d="M5033 3080 c0 -25 2 -35 4 -22 2 12 2 32 0 45 -2 12 -4 2 -4 -23z"/>
<path d="M5070 3080 c0 -22 5 -40 10 -40 6 0 10 18 10 40 0 22 -4 40 -10 40
-5 0 -10 -18 -10 -40z"/>
<path d="M3190 2940 c-13 -8 -12 -10 3 -10 9 0 17 5 17 10 0 12 -1 12 -20 0z"/>
<path d="M3365 2870 c4 -6 11 -8 16 -5 14 9 11 15 -7 15 -8 0 -12 -5 -9 -10z"/>
<path d="M5203 2800 c0 -47 2 -66 4 -42 2 23 2 61 0 85 -2 23 -4 4 -4 -43z"/>
<path d="M5041 2784 c0 -11 3 -14 6 -6 3 7 2 16 -1 19 -3 4 -6 -2 -5 -13z"/>
<path d="M5140 2653 c0 -37 -3 -78 -6 -90 -7 -27 10 -31 32 -8 11 11 14 33 12
87 -2 60 -6 73 -20 76 -16 3 -18 -5 -18 -65z"/>
<path d="M5193 2675 c0 -22 2 -30 4 -17 2 12 2 30 0 40 -3 9 -5 -1 -4 -23z"/>
<path d="M5088 2509 c-7 -74 7 -106 51 -113 19 -3 37 -3 40 -1 2 3 -4 5 -13 5
-10 0 -16 6 -13 13 2 6 12 12 23 12 16 0 20 -10 25 -55 4 -39 6 -20 7 68 1 76
-2 122 -8 122 -5 0 -10 -4 -10 -10 0 -5 -7 -10 -15 -10 -8 0 -15 -9 -15 -20 0
-11 7 -20 15 -20 8 0 15 -4 15 -10 0 -5 -7 -10 -15 -10 -8 0 -15 5 -15 10 0 6
-7 10 -16 10 -9 0 -14 -6 -11 -12 2 -7 1 -22 -4 -33 -5 -13 -8 1 -8 43 -1 45
-5 62 -15 62 -9 0 -15 -17 -18 -51z"/>
<path d="M4450 2476 c0 -2 7 -7 16 -10 8 -3 12 -2 9 4 -6 10 -25 14 -25 6z"/>
<path d="M5140 2370 c0 -5 7 -10 16 -10 8 0 12 5 9 10 -3 6 -10 10 -16 10 -5
0 -9 -4 -9 -10z"/>
<path d="M5109 2344 c61 -27 61 -27 61 -15 0 8 -89 42 -107 40 -4 0 16 -11 46
-25z"/>
<path d="M6780 4505 c-14 -8 -34 -12 -45 -9 -16 4 -17 3 -5 -5 17 -12 50 -14
75 -5 13 6 14 9 3 16 -8 6 -1 7 22 4 26 -5 30 -4 15 3 -27 13 -36 12 -65 -4z"/>
<path d="M6678 4473 c7 -3 16 -2 19 1 4 3 -2 6 -13 5 -11 0 -14 -3 -6 -6z"/>
<path d="M6400 4318 c0 -29 3 -70 6 -90 6 -35 10 -38 59 -53 29 -8 58 -15 64
-15 7 0 11 29 11 83 l0 82 -62 23 c-35 12 -66 22 -70 22 -5 0 -8 -24 -8 -52z"/>
<path d="M2245 4610 c-3 -5 1 -10 10 -10 9 0 13 5 10 10 -3 6 -8 10 -10 10 -2
0 -7 -4 -10 -10z"/>
<path d="M2397 4565 c3 -8 9 -12 14 -9 12 7 11 11 -5 17 -10 4 -13 1 -9 -8z"/>
<path d="M2283 4533 c9 -2 23 -2 30 0 6 3 -1 5 -18 5 -16 0 -22 -2 -12 -5z"/>
<path d="M2390 4411 c0 -6 5 -13 12 -17 6 -4 8 -3 4 4 -3 5 0 13 6 15 8 3 6 6
-4 6 -10 1 -18 -3 -18 -8z"/>
<path d="M2402 4280 c0 -14 2 -19 5 -12 2 6 2 18 0 25 -3 6 -5 1 -5 -13z"/>
<path d="M8090 2840 c-8 -5 -10 -10 -5 -10 6 0 17 5 25 10 8 5 11 10 5 10 -5
0 -17 -5 -25 -10z"/>
<path d="M7991 2544 c0 -11 3 -14 6 -6 3 7 2 16 -1 19 -3 4 -6 -2 -5 -13z"/>
<path d="M2678 2483 c7 -3 16 -2 19 1 4 3 -2 6 -13 5 -11 0 -14 -3 -6 -6z"/>
<path d="M2556 2453 c-6 -14 -5 -15 5 -6 7 7 10 15 7 18 -3 3 -9 -2 -12 -12z"/>
<path d="M7753 2295 c0 -8 4 -12 9 -9 5 3 6 10 3 15 -9 13 -12 11 -12 -6z"/>
<path d="M6270 2210 c-8 -5 -10 -10 -5 -10 6 0 17 5 25 10 8 5 11 10 5 10 -5
0 -17 -5 -25 -10z"/>
<path d="M6608 2003 c7 -3 16 -2 19 1 4 3 -2 6 -13 5 -11 0 -14 -3 -6 -6z"/>
<path d="M8176 2103 c-3 -8 -6 -23 -6 -34 0 -18 10 -19 210 -19 l210 0 0 35 0
36 -204 -2 c-170 -1 -206 -4 -210 -16z m97 -10 c-7 -2 -21 -2 -30 0 -10 3 -4
5 12 5 17 0 24 -2 18 -5z"/>
<path d="M8453 1963 c-20 -4 -23 -11 -23 -49 l0 -44 40 0 40 0 0 -40 0 -40
-40 0 -40 0 0 -40 0 -40 69 0 c82 0 81 -3 81 148 l0 102 -32 0 c-18 0 -42 2
-53 4 -11 2 -30 2 -42 -1z"/>
<path d="M8190 1835 l0 -125 75 0 75 0 0 40 0 40 -46 0 -45 0 3 42 3 43 43 -3
42 -4 0 46 0 46 -75 0 -75 0 0 -125z"/>
<path d="M8043 1720 c0 -25 2 -35 4 -22 2 12 2 32 0 45 -2 12 -4 2 -4 -23z"/>
<path d="M8048 1664 c-5 -4 -8 -19 -8 -33 0 -18 3 -22 11 -14 6 6 9 21 7 33
-1 12 -6 18 -10 14z"/>
<path d="M3437 1729 c7 -7 15 -10 18 -7 3 3 -2 9 -12 12 -14 6 -15 5 -6 -5z"/>
<path d="M3380 1723 c0 -17 32 -25 44 -12 8 9 7 10 -5 6 -9 -3 -22 0 -28 6 -8
8 -11 8 -11 0z"/>
<path d="M3530 1641 c0 -10 50 -25 58 -16 3 3 -2 5 -11 5 -9 0 -17 5 -17 10 0
6 -7 10 -15 10 -8 0 -15 -4 -15 -9z"/>
<path d="M7030 1710 c-8 -5 -10 -10 -5 -10 6 0 17 5 25 10 8 5 11 10 5 10 -5
0 -17 -5 -25 -10z"/>
<path d="M6215 1470 c-3 -5 -1 -10 4 -10 6 0 11 5 11 10 0 6 -2 10 -4 10 -3 0
-8 -4 -11 -10z"/>
<path d="M6105 1407 c-16 -12 -17 -17 -6 -30 11 -15 16 -14 48 3 20 11 41 16
47 13 8 -4 8 -2 1 5 -18 20 -68 24 -90 9z"/>
</g>
</svg>
